<mxfile host="app.diagrams.net" modified="2024-07-30T08:37:51.279Z" agent="Mozilla/5.0 (Macintosh; Intel Mac OS X 10_15_7) AppleWebKit/537.36 (KHTML, like Gecko) Chrome/127.0.0.0 Safari/537.36 Edg/127.0.0.0" etag="8ZOY5oCdXfT7ELZg-uMX" version="24.3.1" type="github">
  <diagram name="Page-1" id="40ZlWn7eFCT-pTcqmkdg">
    <mxGraphModel dx="829" dy="576" grid="1" gridSize="10" guides="1" tooltips="1" connect="1" arrows="1" fold="1" page="1" pageScale="1" pageWidth="827" pageHeight="1169" math="0" shadow="0">
      <root>
        <mxCell id="0" />
        <mxCell id="1" parent="0" />
        <mxCell id="_zW3d6wU_SSIgvIuDbtR-3" style="edgeStyle=orthogonalEdgeStyle;rounded=0;orthogonalLoop=1;jettySize=auto;html=1;exitX=1;exitY=0.5;exitDx=0;exitDy=0;entryX=1;entryY=0.5;entryDx=0;entryDy=0;fillColor=#f8cecc;strokeColor=#b85450;" edge="1" parent="1" source="_zW3d6wU_SSIgvIuDbtR-1" target="_zW3d6wU_SSIgvIuDbtR-2">
          <mxGeometry relative="1" as="geometry" />
        </mxCell>
        <mxCell id="_zW3d6wU_SSIgvIuDbtR-5" value="tick-统一获取URB请求块" style="edgeLabel;html=1;align=center;verticalAlign=middle;resizable=0;points=[];" vertex="1" connectable="0" parent="_zW3d6wU_SSIgvIuDbtR-3">
          <mxGeometry x="0.0529" y="1" relative="1" as="geometry">
            <mxPoint x="59" as="offset" />
          </mxGeometry>
        </mxCell>
        <mxCell id="_zW3d6wU_SSIgvIuDbtR-17" style="edgeStyle=orthogonalEdgeStyle;rounded=0;orthogonalLoop=1;jettySize=auto;html=1;exitX=0;exitY=0;exitDx=0;exitDy=0;entryX=0;entryY=1;entryDx=0;entryDy=0;fillColor=#dae8fc;strokeColor=#6c8ebf;" edge="1" parent="1" source="_zW3d6wU_SSIgvIuDbtR-1" target="_zW3d6wU_SSIgvIuDbtR-8">
          <mxGeometry relative="1" as="geometry" />
        </mxCell>
        <mxCell id="_zW3d6wU_SSIgvIuDbtR-19" style="edgeStyle=orthogonalEdgeStyle;rounded=0;orthogonalLoop=1;jettySize=auto;html=1;exitX=0;exitY=0;exitDx=0;exitDy=0;entryX=0;entryY=1;entryDx=0;entryDy=0;fillColor=#dae8fc;strokeColor=#6c8ebf;" edge="1" parent="1" source="_zW3d6wU_SSIgvIuDbtR-1" target="_zW3d6wU_SSIgvIuDbtR-7">
          <mxGeometry relative="1" as="geometry" />
        </mxCell>
        <mxCell id="_zW3d6wU_SSIgvIuDbtR-21" style="edgeStyle=orthogonalEdgeStyle;rounded=0;orthogonalLoop=1;jettySize=auto;html=1;exitX=1;exitY=0;exitDx=0;exitDy=0;entryX=1;entryY=1;entryDx=0;entryDy=0;fillColor=#dae8fc;strokeColor=#6c8ebf;" edge="1" parent="1" source="_zW3d6wU_SSIgvIuDbtR-1" target="_zW3d6wU_SSIgvIuDbtR-9">
          <mxGeometry relative="1" as="geometry" />
        </mxCell>
        <mxCell id="_zW3d6wU_SSIgvIuDbtR-1" value="USB层" style="ellipse;whiteSpace=wrap;html=1;" vertex="1" parent="1">
          <mxGeometry x="280" y="160" width="120" height="80" as="geometry" />
        </mxCell>
        <mxCell id="_zW3d6wU_SSIgvIuDbtR-4" style="edgeStyle=orthogonalEdgeStyle;rounded=0;orthogonalLoop=1;jettySize=auto;html=1;entryX=0;entryY=0.5;entryDx=0;entryDy=0;exitX=0;exitY=0.5;exitDx=0;exitDy=0;fillColor=#dae8fc;strokeColor=#6c8ebf;" edge="1" parent="1" source="_zW3d6wU_SSIgvIuDbtR-2" target="_zW3d6wU_SSIgvIuDbtR-1">
          <mxGeometry relative="1" as="geometry" />
        </mxCell>
        <mxCell id="_zW3d6wU_SSIgvIuDbtR-6" value="tock-同步/异步的将UCB块回送" style="edgeLabel;html=1;align=center;verticalAlign=middle;resizable=0;points=[];" vertex="1" connectable="0" parent="_zW3d6wU_SSIgvIuDbtR-4">
          <mxGeometry x="-0.0737" relative="1" as="geometry">
            <mxPoint x="-80" as="offset" />
          </mxGeometry>
        </mxCell>
        <mxCell id="_zW3d6wU_SSIgvIuDbtR-2" value="主机控制器层" style="ellipse;whiteSpace=wrap;html=1;" vertex="1" parent="1">
          <mxGeometry x="280" y="310" width="120" height="80" as="geometry" />
        </mxCell>
        <mxCell id="_zW3d6wU_SSIgvIuDbtR-18" style="edgeStyle=orthogonalEdgeStyle;rounded=0;orthogonalLoop=1;jettySize=auto;html=1;exitX=0.5;exitY=1;exitDx=0;exitDy=0;entryX=0.5;entryY=0;entryDx=0;entryDy=0;fillColor=#f8cecc;strokeColor=#b85450;" edge="1" parent="1" source="_zW3d6wU_SSIgvIuDbtR-7" target="_zW3d6wU_SSIgvIuDbtR-1">
          <mxGeometry relative="1" as="geometry">
            <Array as="points">
              <mxPoint x="180" y="130" />
              <mxPoint x="340" y="130" />
            </Array>
          </mxGeometry>
        </mxCell>
        <mxCell id="_zW3d6wU_SSIgvIuDbtR-7" value="驱动设备1" style="ellipse;whiteSpace=wrap;html=1;aspect=fixed;" vertex="1" parent="1">
          <mxGeometry x="140" y="40" width="80" height="80" as="geometry" />
        </mxCell>
        <mxCell id="_zW3d6wU_SSIgvIuDbtR-16" style="edgeStyle=orthogonalEdgeStyle;rounded=0;orthogonalLoop=1;jettySize=auto;html=1;exitX=1;exitY=1;exitDx=0;exitDy=0;entryX=1;entryY=0;entryDx=0;entryDy=0;fillColor=#f8cecc;strokeColor=#b85450;" edge="1" parent="1" source="_zW3d6wU_SSIgvIuDbtR-8" target="_zW3d6wU_SSIgvIuDbtR-1">
          <mxGeometry relative="1" as="geometry" />
        </mxCell>
        <mxCell id="_zW3d6wU_SSIgvIuDbtR-8" value="驱动设备2" style="ellipse;whiteSpace=wrap;html=1;aspect=fixed;" vertex="1" parent="1">
          <mxGeometry x="300" y="10" width="80" height="80" as="geometry" />
        </mxCell>
        <mxCell id="_zW3d6wU_SSIgvIuDbtR-20" style="edgeStyle=orthogonalEdgeStyle;rounded=0;orthogonalLoop=1;jettySize=auto;html=1;exitX=0.5;exitY=1;exitDx=0;exitDy=0;entryX=0.5;entryY=0;entryDx=0;entryDy=0;fillColor=#f8cecc;strokeColor=#b85450;" edge="1" parent="1" source="_zW3d6wU_SSIgvIuDbtR-9" target="_zW3d6wU_SSIgvIuDbtR-1">
          <mxGeometry relative="1" as="geometry" />
        </mxCell>
        <mxCell id="_zW3d6wU_SSIgvIuDbtR-9" value="驱动设备n" style="ellipse;whiteSpace=wrap;html=1;aspect=fixed;" vertex="1" parent="1">
          <mxGeometry x="460" y="40" width="80" height="80" as="geometry" />
        </mxCell>
        <mxCell id="_zW3d6wU_SSIgvIuDbtR-22" value="红色：发送URB&lt;div&gt;蓝色：接收UCB&lt;/div&gt;" style="rounded=0;whiteSpace=wrap;html=1;dashed=1;" vertex="1" parent="1">
          <mxGeometry x="460" y="190" width="170" height="60" as="geometry" />
        </mxCell>
      </root>
    </mxGraphModel>
  </diagram>
</mxfile>
